<?xml version="1.0" encoding="utf-8"?>
<!-- Generator: Adobe Illustrator 24.0.2, SVG Export Plug-In . SVG Version: 6.00 Build 0)  -->
<svg version="1.1" id="Livello_1" xmlns="http://www.w3.org/2000/svg" xmlns:xlink="http://www.w3.org/1999/xlink" x="0px" y="0px"
	 viewBox="0 0 399.7 245" style="enable-background:new 0 0 399.7 245;" xml:space="preserve">
<style type="text/css">
	.st0{fill:#026FB0;}
	.st1{fill:#F29100;}
	.st2{fill:#868686;}
</style>
<title>logo-splash-experience</title>
<rect x="70.4" y="167.2" class="st0" width="9.9" height="44"/>
<polyline class="st0" points="109.5,193.3 103.2,200.3 103.2,211.2 93.2,211.2 93.2,167.2 103.2,167.2 103.2,187.2 121.5,167.2 
	133,167.2 116.4,185.6 134.1,211.2 122.2,211.2 109.5,193.3 "/>
<path class="st0" d="M151.4,202.7l-3.5,8.5h-10.2l19.1-44H167l18.8,44h-10.6l-3.5-8.5H151.4 M161.6,177.6l-7,17.1h13.9L161.6,177.6z
	"/>
<path class="st0" d="M213.6,198.6h-10.1v12.6h-9.9v-44h19.1c11.5,0,18,5.5,18,15.3c0,6.8-2.9,11.7-8.2,14.2l9.4,14.5h-11.3
	L213.6,198.6 M212.7,190.3c5.5,0,8.6-2.5,8.6-7.5c0-4.9-3.1-7.4-8.6-7.4h-9.2v14.9H212.7z"/>
<path class="st0" d="M286.4,189.2c0,12.7-10.2,22.4-23.6,22.4c-13.5,0-23.6-9.7-23.6-22.4c0-12.8,10.2-22.3,23.6-22.3
	C276.2,166.9,286.4,176.4,286.4,189.2 M249.3,189.2c0,7.7,6.2,13.8,13.6,13.8c7.4,0,13.3-6,13.3-13.8c0-7.7-6-13.6-13.3-13.6
	C255.4,175.6,249.3,181.5,249.3,189.2z"/>
<path class="st0" d="M328.9,171.5l-3.8,8.2c-4.7-2.8-10.2-4.5-13.7-4.5c-3.3,0-5.6,1.2-5.6,3.6c0,8.1,23.5,3.6,23.4,19.4
	c0,8.6-7.5,13.3-17.2,13.3c-7.2,0-14.5-2.8-19.4-7l4-8.1c4.5,4,10.9,6.6,15.6,6.6c4.1,0,6.5-1.5,6.5-4.2c0-8.3-23.5-3.5-23.5-19.1
	c0-8,6.9-13,17-13C318.3,166.8,324.5,168.6,328.9,171.5"/>
<path class="st1" d="M269.8,8.2c0.5,0.6,0.2,2.5,0.2,2.5l-33.6,48.5l0.8-53.8c0-2.3,1.5-3.4,1.5-3.4H222c0,0,1.8,1.1,1.8,3.4l0,0.7
	l-24.2,27.3L175.2,6l0-0.6c0-2.3,1.2-3.4,1.2-3.4H160c0,0,1.8,1.1,1.8,3.4l0.8,53.8l-33.6-48.5c0,0-0.3-1.9,0.2-2.5h-23.2
	c0,0,1.2,1.1,2.5,2.7l47.7,62.7c0,0,5.4,7.8,5.8,9l-1.2,62.6c0,0-1,5.1-1.6,5.4h18.6c-0.6-0.2-1.6-5.4-1.6-5.4L175,82.5
	c0.4-1.2,5.8-9,5.8-9l17.9-21.9l19.3,21.9c0,0,5.4,7.8,5.8,9l-1.2,62.6c0,0-1,5.1-1.6,5.4h18.6c-0.6-0.2-1.6-5.4-1.6-5.4L237,82.5
	c0.4-1.2,5.8-9,5.8-9l47.7-62.2c0.8-1.7,2.7-3.1,2.7-3.1H269.8 M174.5,61.5l0.5-36.8l16,18.2L174.5,61.5z M206.9,41.7l17-20.8
	l0.5,40.6L206.9,41.7z"/>
<path class="st2" d="M73.2,236.3c0,2.1,0,3.8,0.1,4.8c0.1,0.6,0.2,1.1,0.9,1.2c0.3,0,0.8,0.1,1,0.1c0.1,0,0.2,0.1,0.2,0.1
	c0,0.1-0.1,0.2-0.4,0.2c-1.2,0-2.6-0.1-2.7-0.1c-0.1,0-1.5,0.1-2.2,0.1c-0.2,0-0.4,0-0.4-0.2c0-0.1,0-0.1,0.2-0.1
	c0.2,0,0.5,0,0.7-0.1c0.4-0.1,0.6-0.6,0.6-1.2c0.1-0.9,0.1-2.7,0.1-4.8v-3.9c0-3.4,0-4,0-4.7c0-0.7-0.3-1.1-0.7-1.2
	c-0.2-0.1-0.5-0.1-0.7-0.1c-0.1,0-0.2,0-0.2-0.1c0-0.1,0.1-0.2,0.4-0.2c0.7,0,2.1,0.1,2.2,0.1c0.1,0,1.5-0.1,2.2-0.1
	c0.2,0,0.4,0,0.4,0.2c0,0.1-0.1,0.1-0.2,0.1c-0.2,0-0.3,0-0.5,0.1c-0.6,0.1-0.8,0.5-0.8,1.3c0,0.7,0,1.3,0,4.7V236.3"/>
<path class="st2" d="M90.5,236.3c0,2.1,0,3.8,0.1,4.8c0.1,0.6,0.2,1.1,0.9,1.2c0.3,0,0.8,0.1,1,0.1c0.1,0,0.2,0.1,0.2,0.1
	c0,0.1-0.1,0.2-0.4,0.2c-1.2,0-2.6-0.1-2.7-0.1c-0.1,0-1.5,0.1-2.2,0.1c-0.2,0-0.4,0-0.4-0.2c0-0.1,0-0.1,0.2-0.1
	c0.2,0,0.5,0,0.7-0.1c0.4-0.1,0.5-0.6,0.6-1.2c0.1-0.9,0.1-2.7,0.1-4.8V227l-3.3,0c-1.4,0-1.9,0.2-2.2,0.7c-0.2,0.4-0.3,0.5-0.4,0.7
	c-0.1,0.2-0.1,0.2-0.2,0.2c-0.1,0-0.1-0.1-0.1-0.2c0-0.2,0.4-2.1,0.5-2.3c0-0.1,0.1-0.4,0.2-0.4c0.2,0,0.4,0.2,1,0.3
	c0.6,0.1,1.5,0.1,1.7,0.1h8.2c1.4,0,2-0.2,2.2-0.2c0.1,0,0.1,0.1,0.1,0.3c0,0.7-0.1,2.2-0.1,2.4c0,0.2-0.1,0.3-0.2,0.3
	c-0.1,0-0.2-0.1-0.2-0.4l0-0.2c-0.1-0.7-0.6-1.2-2.7-1.2l-2.8,0V236.3"/>
<path class="st2" d="M103.9,225.1c-0.2-0.2-0.2-0.3-0.2-0.4c0-0.1,0.1-0.1,0.2-0.1c0.4,0,1.2,0.3,1.5,0.4c0.3,0.1,0.4,0.2,0.4,0.6
	c0,1.6-1.1,3.4-1.9,4.3c-0.1,0.1-0.2,0.2-0.3,0.2c0,0-0.1,0-0.1-0.1c0-0.1,0-0.1,0.1-0.3c0.3-0.7,0.7-1.9,0.7-3.1
	C104.3,225.9,104,225.3,103.9,225.1"/>
<path class="st2" d="M113.2,242.4c-0.3-0.2-0.3-0.2-0.3-0.8c0-1.1,0.1-2,0.1-2.3c0-0.2,0.1-0.4,0.2-0.4c0.1,0,0.2,0.1,0.2,0.2
	c0,0.2,0,0.5,0.1,0.8c0.3,1.6,1.8,2.2,3.3,2.2c2.1,0,3.1-1.5,3.1-2.9c0-1.5-0.6-2.4-2.5-4l-1-0.8c-2.3-1.9-2.9-3.3-2.9-4.8
	c0-2.4,1.8-4,4.5-4c0.9,0,1.5,0.1,2,0.2c0.4,0.1,0.6,0.1,0.8,0.1c0.2,0,0.2,0,0.2,0.2s-0.1,0.8-0.1,2.3c0,0.4,0,0.5-0.2,0.5
	c-0.1,0-0.2-0.1-0.2-0.3c0-0.3-0.2-0.9-0.3-1.1c-0.1-0.2-0.7-1.2-2.7-1.2c-1.5,0-2.7,0.9-2.7,2.5c0,1.3,0.6,2,2.7,3.7l0.6,0.5
	c2.6,2,3.2,3.4,3.2,5.2c0,0.9-0.4,2.6-1.9,3.6c-0.9,0.7-2.1,0.9-3.3,0.9C115.1,243,114.1,242.8,113.2,242.4"/>
<path class="st2" d="M143.7,232.5c0-3.4,0-4,0-4.7c0-0.7-0.2-1.1-0.9-1.3c-0.2,0-0.5-0.1-0.7-0.1c-0.1,0-0.2,0-0.2-0.1
	c0-0.1,0.1-0.2,0.4-0.2c1,0,2.4,0.1,2.5,0.1c0.2,0,4.5,0,5,0c0.4,0,0.8-0.1,0.9-0.1c0.1,0,0.2-0.1,0.3-0.1c0.1,0,0.1,0.1,0.1,0.2
	c0,0.2-0.1,0.4-0.2,1c0,0.2-0.1,1.2-0.1,1.5c0,0.1-0.1,0.2-0.2,0.2c-0.1,0-0.2-0.1-0.2-0.3c0-0.2,0-0.5-0.1-0.8
	c-0.2-0.4-0.4-0.6-1.6-0.7c-0.4,0-2.8-0.1-3-0.1c-0.1,0-0.1,0.1-0.1,0.2v6.1c0,0.2,0,0.2,0.1,0.2c0.3,0,3,0,3.5,0
	c0.5,0,0.8-0.1,1-0.3c0.2-0.2,0.2-0.3,0.3-0.3c0.1,0,0.1,0,0.1,0.2c0,0.1-0.1,0.5-0.2,1.2c0,0.4-0.1,1.3-0.1,1.4
	c0,0.2,0,0.4-0.2,0.4c-0.1,0-0.2-0.1-0.2-0.2c0-0.2,0-0.4-0.1-0.7c-0.1-0.3-0.3-0.7-1.1-0.8c-0.6-0.1-2.8-0.1-3.1-0.1
	c-0.1,0-0.2,0.1-0.2,0.2v1.9c0,0.7,0,3.3,0,3.8c0.1,1.5,0.4,1.8,2.5,1.8c0.6,0,1.5,0,2.1-0.2c0.6-0.2,0.8-0.7,1-1.6
	c0-0.2,0.1-0.3,0.2-0.3c0.1,0,0.1,0.2,0.1,0.3c0,0.2-0.2,1.7-0.3,2.1c-0.2,0.6-0.3,0.6-1.2,0.6c-3.3,0-4.8-0.1-5.4-0.1
	c-0.1,0-1.5,0.1-2.2,0.1c-0.2,0-0.4,0-0.4-0.2c0-0.1,0-0.1,0.2-0.1c0.2,0,0.5,0,0.7-0.1c0.4-0.1,0.5-0.6,0.6-1.2
	c0.1-0.9,0.1-2.7,0.1-4.8V232.5"/>
<path class="st2" d="M165.4,234.2l-3.5-5.9c-0.5-0.9-1-1.5-1.7-1.8c-0.4-0.1-0.8-0.2-0.9-0.2s-0.2-0.1-0.2-0.2
	c0-0.1,0.1-0.2,0.4-0.2c0.6,0,2.4,0.1,2.6,0.1c0.2,0,1.3-0.1,2.1-0.1c0.3,0,0.4,0,0.4,0.2s-0.1,0.2-0.2,0.2c-0.1,0-0.4,0-0.6,0.1
	c-0.2,0.1-0.3,0.2-0.3,0.4c0,0.2,0.1,0.5,0.2,0.7c0.9,1.7,1.8,3.4,3,5.3c0.7-0.9,3-4.7,3.2-5.2c0.2-0.3,0.2-0.5,0.2-0.8
	c0-0.2-0.2-0.3-0.4-0.4c-0.2-0.1-0.5-0.1-0.7-0.1c-0.1,0-0.2,0-0.2-0.2c0-0.1,0.1-0.2,0.4-0.2c0.8,0,1.8,0.1,2,0.1
	c0.2,0,1.1-0.1,1.8-0.1c0.2,0,0.4,0.1,0.4,0.2s-0.1,0.2-0.2,0.2c-0.2,0-0.5,0-0.7,0.1c-0.6,0.2-1.1,0.8-1.7,1.8l-3.5,5.3
	c0.4,0.7,4.2,7.1,4.6,7.7c0.4,0.5,0.7,0.8,1.3,1c0.3,0.1,0.6,0.1,0.8,0.1c0.1,0,0.2,0,0.2,0.1c0,0.1-0.1,0.2-0.3,0.2
	c-1.3,0-2.4,0-3.5,0c-0.6,0-0.7-0.1-0.7-0.2c0-0.1,0-0.2,0.1-0.2c0.1,0,0.3-0.3,0.1-0.6c-1.2-2.2-2.5-4.3-3.8-6.5l-3.4,5.8
	c-0.2,0.4-0.3,0.7-0.3,1c0,0.2,0.2,0.4,0.4,0.4c0.1,0,0.3,0,0.4,0c0.1,0,0.2,0.1,0.2,0.2c0,0.1-0.1,0.2-0.3,0.2
	c-0.5,0-1.9-0.1-2.1-0.1c-0.2,0-1.3,0.1-2,0.1c-0.2,0-0.2-0.1-0.2-0.2c0-0.1,0.1-0.2,0.2-0.2c0.2,0,0.5,0,0.8-0.1
	c0.7-0.2,1.1-0.7,1.8-1.8L165.4,234.2"/>
<path class="st2" d="M182.6,232.5c0-3.4,0-4,0-4.7c0-0.7-0.2-1.1-0.9-1.3c-0.2,0-0.5-0.1-0.7-0.1c-0.1,0-0.2,0-0.2-0.1
	c0-0.1,0.1-0.2,0.4-0.2c1,0,2.3,0.1,2.5,0.1c0.5,0,1.8-0.1,2.8-0.1c2.7,0,3.7,0.9,4.1,1.3c0.5,0.5,1.1,1.5,1.1,2.6
	c0,3.1-2.3,5.2-5.4,5.2c-0.1,0-0.4,0-0.5,0c-0.1,0-0.2,0-0.2-0.2c0-0.2,0.1-0.2,0.6-0.2c2.1,0,3.8-1.6,3.8-3.6
	c0-0.7-0.1-2.2-1.2-3.4c-1.2-1.2-2.5-1.1-3-1.1c-0.4,0-0.7,0-0.9,0.1c-0.1,0-0.2,0.2-0.2,0.4v9c0,2.1,0,3.8,0.1,4.8
	c0.1,0.6,0.2,1.1,0.9,1.2c0.3,0,0.8,0.1,1,0.1c0.1,0,0.2,0.1,0.2,0.1c0,0.1-0.1,0.2-0.4,0.2c-1.2,0-2.6-0.1-2.7-0.1
	c-0.1,0-1.5,0.1-2.1,0.1c-0.2,0-0.4,0-0.4-0.2c0-0.1,0-0.1,0.2-0.1c0.2,0,0.5,0,0.7-0.1c0.4-0.1,0.5-0.6,0.6-1.2
	c0.1-0.9,0.1-2.7,0.1-4.8V232.5"/>
<path class="st2" d="M201.1,232.5c0-3.4,0-4,0-4.7c0-0.7-0.2-1.1-0.9-1.3c-0.2,0-0.6-0.1-0.7-0.1c-0.1,0-0.2,0-0.2-0.1
	c0-0.1,0.1-0.2,0.4-0.2c1,0,2.4,0.1,2.5,0.1c0.2,0,4.5,0,5,0c0.4,0,0.8-0.1,0.9-0.1c0.1,0,0.2-0.1,0.3-0.1c0.1,0,0.1,0.1,0.1,0.2
	c0,0.2-0.1,0.4-0.2,1c0,0.2-0.1,1.2-0.1,1.5c0,0.1-0.1,0.2-0.2,0.2c-0.1,0-0.2-0.1-0.2-0.3c0-0.2,0-0.5-0.1-0.8
	c-0.2-0.4-0.4-0.6-1.6-0.7c-0.4,0-2.8-0.1-3-0.1c-0.1,0-0.1,0.1-0.1,0.2v6.1c0,0.2,0,0.2,0.1,0.2c0.3,0,3,0,3.5,0
	c0.5,0,0.8-0.1,1-0.3c0.2-0.2,0.2-0.3,0.3-0.3c0.1,0,0.1,0,0.1,0.2c0,0.1-0.1,0.5-0.2,1.2c0,0.4-0.1,1.3-0.1,1.4
	c0,0.2,0,0.4-0.2,0.4c-0.1,0-0.2-0.1-0.2-0.2c0-0.2,0-0.4-0.1-0.7c-0.1-0.3-0.3-0.7-1.1-0.8c-0.6-0.1-2.8-0.1-3.1-0.1
	c-0.1,0-0.2,0.1-0.2,0.2v1.9c0,0.7,0,3.3,0,3.8c0.1,1.5,0.4,1.8,2.5,1.8c0.6,0,1.5,0,2.1-0.2c0.6-0.2,0.8-0.7,1-1.6
	c0-0.2,0.1-0.3,0.2-0.3c0.1,0,0.1,0.2,0.1,0.3c0,0.2-0.2,1.7-0.3,2.1c-0.2,0.6-0.3,0.6-1.2,0.6c-3.3,0-4.8-0.1-5.4-0.1
	c-0.1,0-1.5,0.1-2.2,0.1c-0.2,0-0.4,0-0.4-0.2c0-0.1,0-0.1,0.2-0.1c0.2,0,0.5,0,0.7-0.1c0.4-0.1,0.5-0.6,0.6-1.2
	c0.1-0.9,0.1-2.7,0.1-4.8V232.5"/>
<path class="st2" d="M219.2,232.5c0-3.4,0-4,0-4.7c0-0.7-0.2-1.1-0.9-1.3c-0.2,0-0.6-0.1-0.7-0.1c-0.1,0-0.2,0-0.2-0.1
	c0-0.1,0.1-0.2,0.4-0.2c1,0,2.4,0.1,2.5,0.1c0.2,0,1.9-0.1,2.6-0.1c1.4,0,2.9,0.1,4,1c0.5,0.4,1.5,1.5,1.5,3c0,1.6-0.7,3.3-2.7,5.1
	c1.8,2.3,3.3,4.3,4.6,5.6c1.2,1.3,2.1,1.5,2.7,1.6c0.4,0.1,0.7,0.1,0.9,0.1c0.1,0,0.2,0.1,0.2,0.1c0,0.1-0.1,0.2-0.5,0.2h-1.6
	c-1.2,0-1.8-0.1-2.4-0.4c-0.9-0.5-1.7-1.6-3-3.2c-0.9-1.2-2-2.7-2.4-3.3c-0.1-0.1-0.2-0.1-0.3-0.1l-2.7,0c-0.1,0-0.2,0.1-0.2,0.2
	v0.5c0,2.1,0,3.8,0.1,4.8c0.1,0.6,0.2,1.1,0.9,1.2c0.3,0,0.8,0.1,1,0.1c0.1,0,0.2,0.1,0.2,0.1c0,0.1-0.1,0.2-0.4,0.2
	c-1.2,0-2.6-0.1-2.7-0.1c0,0-1.4,0.1-2.1,0.1c-0.2,0-0.4,0-0.4-0.2c0-0.1,0-0.1,0.2-0.1c0.2,0,0.5,0,0.7-0.1
	c0.4-0.1,0.6-0.6,0.6-1.2c0.1-0.9,0.1-2.7,0.1-4.8V232.5 M221,234.4c0,0.1,0,0.2,0.2,0.3c0.3,0.2,1.3,0.4,2.3,0.4
	c0.5,0,1.1-0.1,1.6-0.4c0.8-0.5,1.3-1.7,1.3-3.4c0-2.7-1.5-4.4-3.8-4.4c-0.7,0-1.3,0.1-1.5,0.1c-0.1,0-0.2,0.1-0.2,0.3V234.4z"/>
<path class="st2" d="M242.4,236.3c0,2.1,0,3.8,0.1,4.8c0.1,0.6,0.2,1.1,0.9,1.2c0.3,0,0.8,0.1,1,0.1c0.1,0,0.2,0.1,0.2,0.1
	c0,0.1-0.1,0.2-0.4,0.2c-1.2,0-2.6-0.1-2.7-0.1c-0.1,0-1.5,0.1-2.2,0.1c-0.2,0-0.4,0-0.4-0.2c0-0.1,0-0.1,0.2-0.1
	c0.2,0,0.5,0,0.7-0.1c0.4-0.1,0.5-0.6,0.6-1.2c0.1-0.9,0.1-2.7,0.1-4.8v-3.9c0-3.4,0-4,0-4.7c0-0.7-0.3-1.1-0.7-1.2
	c-0.2-0.1-0.5-0.1-0.7-0.1c-0.1,0-0.2,0-0.2-0.1c0-0.1,0.1-0.2,0.4-0.2c0.7,0,2.1,0.1,2.2,0.1c0.1,0,1.5-0.1,2.2-0.1
	c0.2,0,0.4,0,0.4,0.2c0,0.1-0.1,0.1-0.2,0.1c-0.2,0-0.3,0-0.6,0.1c-0.6,0.1-0.8,0.5-0.8,1.3c0,0.7,0,1.3,0,4.7V236.3"/>
<path class="st2" d="M254.9,232.5c0-3.4,0-4,0-4.7c0-0.7-0.2-1.1-0.9-1.3c-0.2,0-0.5-0.1-0.7-0.1c-0.1,0-0.2,0-0.2-0.1
	c0-0.1,0.1-0.2,0.4-0.2c1,0,2.4,0.1,2.5,0.1c0.2,0,4.5,0,5,0c0.4,0,0.8-0.1,0.9-0.1c0.1,0,0.2-0.1,0.3-0.1c0.1,0,0.1,0.1,0.1,0.2
	c0,0.2-0.1,0.4-0.2,1c0,0.2-0.1,1.2-0.1,1.5c0,0.1-0.1,0.2-0.2,0.2c-0.1,0-0.2-0.1-0.2-0.3c0-0.2,0-0.5-0.1-0.8
	c-0.2-0.4-0.4-0.6-1.6-0.7c-0.4,0-2.8-0.1-3-0.1c-0.1,0-0.1,0.1-0.1,0.2v6.1c0,0.2,0,0.2,0.1,0.2c0.3,0,3,0,3.5,0
	c0.5,0,0.8-0.1,1-0.3c0.2-0.2,0.2-0.3,0.3-0.3c0.1,0,0.1,0,0.1,0.2c0,0.1-0.1,0.5-0.2,1.2c0,0.4-0.1,1.3-0.1,1.4
	c0,0.2,0,0.4-0.2,0.4c-0.1,0-0.2-0.1-0.2-0.2c0-0.2,0-0.4-0.1-0.7c-0.1-0.3-0.3-0.7-1.1-0.8c-0.6-0.1-2.8-0.1-3.1-0.1
	c-0.1,0-0.2,0.1-0.2,0.2v1.9c0,0.7,0,3.3,0,3.8c0.1,1.5,0.4,1.8,2.5,1.8c0.6,0,1.5,0,2.1-0.2c0.6-0.2,0.8-0.7,1-1.6
	c0-0.2,0.1-0.3,0.2-0.3c0.1,0,0.1,0.2,0.1,0.3c0,0.2-0.2,1.7-0.3,2.1c-0.2,0.6-0.3,0.6-1.2,0.6c-3.3,0-4.8-0.1-5.4-0.1
	c-0.1,0-1.5,0.1-2.2,0.1c-0.2,0-0.4,0-0.4-0.2c0-0.1,0-0.1,0.2-0.1c0.2,0,0.5,0,0.7-0.1c0.4-0.1,0.6-0.6,0.6-1.2
	c0.1-0.9,0.1-2.7,0.1-4.8V232.5"/>
<path class="st2" d="M273.6,239.7c0,1.8,0.3,2.4,0.9,2.5c0.4,0.1,0.9,0.1,1.1,0.1c0.1,0,0.2,0,0.2,0.1c0,0.1-0.1,0.2-0.4,0.2
	c-1.3,0-2.1-0.1-2.3-0.1c-0.2,0-1.1,0.1-2.1,0.1c-0.2,0-0.4,0-0.4-0.2c0-0.1,0.1-0.1,0.2-0.1c0.2,0,0.6,0,0.9-0.1
	c0.5-0.2,0.7-0.8,0.7-2.8l0-12.6c0-0.9,0.1-1.1,0.2-1.1c0.2,0,0.5,0.5,0.8,0.7c0.3,0.4,3.6,3.9,7,7.5c2.2,2.3,4.6,5,5.3,5.7
	l-0.2-11.2c0-1.4-0.2-1.9-0.9-2.1c-0.4-0.1-0.9-0.1-1.1-0.1c-0.2,0-0.2-0.1-0.2-0.2c0-0.1,0.2-0.2,0.4-0.2c1,0,2,0.1,2.3,0.1
	c0.2,0,1-0.1,1.9-0.1c0.2,0,0.4,0,0.4,0.2c0,0.1-0.1,0.2-0.2,0.2c-0.1,0-0.3,0-0.5,0.1c-0.7,0.2-0.8,0.6-0.8,2l0,12.9
	c0,1.5,0,1.6-0.2,1.6c-0.2,0-0.4-0.2-1.6-1.4c-0.2-0.2-3.4-3.4-5.7-6c-2.5-2.7-5-5.5-5.7-6.3L273.6,239.7"/>
<path class="st2" d="M298.7,240.6c-2.1-1.9-2.7-4.4-2.7-6.5c0-1.5,0.5-4,2.5-6c1.3-1.3,3.3-2.4,6.7-2.4c0.9,0,2.1,0.1,3.2,0.3
	c0.8,0.2,1.5,0.3,2.2,0.3c0.2,0,0.3,0.1,0.3,0.2c0,0.2-0.1,0.4-0.1,1.2c0,0.7,0,1.9-0.1,2.3c0,0.3-0.1,0.5-0.2,0.5
	c-0.2,0-0.2-0.2-0.2-0.5c0-0.9-0.4-1.8-0.9-2.2c-0.8-0.7-2.5-1.3-4.4-1.3c-2.9,0-4.3,0.9-5.1,1.6c-1.6,1.5-2,3.5-2,5.7
	c0,4.2,3.2,8,7.9,8c1.6,0,2.9-0.2,3.8-1.1c0.5-0.5,0.7-1.4,0.8-1.8c0-0.2,0.1-0.3,0.2-0.3c0.1,0,0.2,0.2,0.2,0.3
	c0,0.2-0.3,2.1-0.5,2.8c-0.1,0.4-0.2,0.5-0.6,0.6c-0.9,0.4-2.5,0.5-4,0.5C302.7,243,300.5,242.2,298.7,240.6"/>
<path class="st2" d="M321,232.5c0-3.4,0-4,0-4.7c0-0.7-0.2-1.1-0.9-1.3c-0.2,0-0.6-0.1-0.7-0.1c-0.1,0-0.2,0-0.2-0.1
	c0-0.1,0.1-0.2,0.4-0.2c1,0,2.4,0.1,2.5,0.1c0.2,0,4.5,0,5,0c0.4,0,0.8-0.1,0.9-0.1c0.1,0,0.2-0.1,0.3-0.1c0.1,0,0.1,0.1,0.1,0.2
	c0,0.2-0.1,0.4-0.2,1c0,0.2-0.1,1.2-0.1,1.5c0,0.1-0.1,0.2-0.2,0.2c-0.1,0-0.2-0.1-0.2-0.3c0-0.2,0-0.5-0.1-0.8
	c-0.2-0.4-0.4-0.6-1.6-0.7c-0.4,0-2.8-0.1-3-0.1c-0.1,0-0.1,0.1-0.1,0.2v6.1c0,0.2,0,0.2,0.1,0.2c0.3,0,3,0,3.5,0
	c0.5,0,0.8-0.1,1-0.3c0.2-0.2,0.2-0.3,0.3-0.3c0.1,0,0.1,0,0.1,0.2c0,0.1-0.1,0.5-0.2,1.2c0,0.4-0.1,1.3-0.1,1.4
	c0,0.2,0,0.4-0.2,0.4c-0.1,0-0.2-0.1-0.2-0.2c0-0.2,0-0.4-0.1-0.7c-0.1-0.3-0.3-0.7-1.1-0.8c-0.6-0.1-2.8-0.1-3.1-0.1
	c-0.1,0-0.2,0.1-0.2,0.2v1.9c0,0.7,0,3.3,0,3.8c0.1,1.5,0.4,1.8,2.5,1.8c0.6,0,1.5,0,2.1-0.2c0.6-0.2,0.8-0.7,1-1.6
	c0-0.2,0.1-0.3,0.2-0.3c0.1,0,0.1,0.2,0.1,0.3c0,0.2-0.2,1.7-0.3,2.1c-0.2,0.6-0.3,0.6-1.2,0.6c-3.3,0-4.8-0.1-5.4-0.1
	c-0.1,0-1.5,0.1-2.2,0.1c-0.2,0-0.4,0-0.4-0.2c0-0.1,0-0.1,0.2-0.1c0.2,0,0.5,0,0.7-0.1c0.4-0.1,0.6-0.6,0.6-1.2
	c0.1-0.9,0.1-2.7,0.1-4.8V232.5"/>
</svg>
